<svg xmlns="http://www.w3.org/2000/svg">


<symbol id="times" viewBox="0 0 352 512">
<path d="M242.72 256l100.07-100.07c12.28-12.28 12.28-32.19 0-44.48l-22.24-22.24c-12.28-12.28-32.19-12.28-44.48 0L176 189.28 75.93 89.21c-12.28-12.28-32.19-12.28-44.48 0L9.21 111.45c-12.28 12.28-12.28 32.19 0 44.48L109.28 256 9.21 356.07c-12.28 12.28-12.28 32.19 0 44.48l22.24 22.24c12.28 12.28 32.2 12.28 44.48 0L176 322.72l100.07 100.07c12.28 12.28 32.2 12.28 44.48 0l22.24-22.24c12.28-12.28 12.28-32.19 0-44.48L242.72 256z"></path>
</symbol>


<symbol id="" viewBox="">

</symbol>


<symbol id="" viewBox="">

</symbol>


<symbol id="" viewBox="">

</symbol>
 

 <!-- 
   e.g.
   <symbol id="facebook" viewBox="0 0 320 512">
    <path d="M279.14 288l14.22-92.66h-88.91v-60.13c0-25.35 12.42-50.06 52.24-50.06h40.42V6.26S260.43 0 225.36 0c-73.22 0-121.08 44.38-121.08 124.72v70.62H22.89V288h81.39v224h100.17V288z"></path>
  </symbol>

  usage:
   <svg>
      <use xlink:href="images/sprite.svg#facebook"></use>
    </svg>
  -->



</svg>
